<svg width="225" height="33" viewBox="0 0 225 33" fill="none" xmlns="http://www.w3.org/2000/svg">
<path d="M40.2841 11.5455L44.1875 24.3295H44.3324L48.2358 11.5455H52.9574L47.0682 29H41.4517L35.5625 11.5455H40.2841ZM59.3857 29.2472C58.0163 29.2472 56.8345 28.9773 55.8402 28.4375C54.8516 27.892 54.0902 27.1165 53.5561 26.1108C53.0277 25.0994 52.7635 23.8977 52.7635 22.5057C52.7635 21.1534 53.0305 19.9716 53.5646 18.9602C54.0987 17.9432 54.8516 17.1534 55.8232 16.5909C56.7947 16.0227 57.9396 15.7386 59.2578 15.7386C60.1896 15.7386 61.0419 15.8835 61.8146 16.1733C62.5874 16.4631 63.255 16.892 63.8175 17.4602C64.38 18.0284 64.8175 18.7301 65.13 19.5653C65.4425 20.3949 65.5987 21.3466 65.5987 22.4205V23.4602H54.2209V21.0398H61.7209C61.7152 20.5966 61.6101 20.2017 61.4055 19.8551C61.201 19.5085 60.9197 19.2386 60.5618 19.0455C60.2095 18.8466 59.8033 18.7472 59.343 18.7472C58.8771 18.7472 58.4595 18.8523 58.0902 19.0625C57.7209 19.267 57.4283 19.5483 57.2124 19.9062C56.9964 20.2585 56.8828 20.6591 56.8714 21.108V23.571C56.8714 24.1051 56.9766 24.5739 57.1868 24.9773C57.397 25.375 57.6953 25.6847 58.0817 25.9062C58.468 26.1278 58.9283 26.2386 59.4624 26.2386C59.8317 26.2386 60.1669 26.1875 60.468 26.0852C60.7692 25.983 61.0277 25.8324 61.2436 25.6335C61.4595 25.4347 61.6214 25.1903 61.7294 24.9006L65.5561 25.0114C65.397 25.8693 65.0476 26.6165 64.5078 27.2528C63.9737 27.8835 63.272 28.375 62.4027 28.7273C61.5334 29.0739 60.5277 29.2472 59.3857 29.2472ZM67.7273 29V15.9091H71.7756V18.2955H71.9119C72.1506 17.4318 72.5398 16.7898 73.0795 16.3693C73.6193 15.9432 74.2472 15.7301 74.9631 15.7301C75.1563 15.7301 75.3551 15.7443 75.5597 15.7727C75.7642 15.7955 75.9545 15.8324 76.1307 15.8835V19.5057C75.9318 19.4375 75.6705 19.3835 75.3466 19.3438C75.0284 19.304 74.7443 19.2841 74.4943 19.2841C74 19.2841 73.554 19.3949 73.1562 19.6165C72.7642 19.8324 72.4545 20.1364 72.2273 20.5284C72.0057 20.9148 71.8949 21.3693 71.8949 21.892V29H67.7273ZM83.2599 29.2472C81.8793 29.2472 80.6946 28.9631 79.706 28.3949C78.723 27.8267 77.9673 27.0369 77.4389 26.0256C76.9105 25.0085 76.6463 23.8324 76.6463 22.4972C76.6463 21.1562 76.9105 19.9801 77.4389 18.9688C77.973 17.9517 78.7315 17.1591 79.7145 16.5909C80.7031 16.0227 81.8821 15.7386 83.2514 15.7386C84.4616 15.7386 85.5156 15.9574 86.4134 16.3949C87.3168 16.8324 88.0213 17.4517 88.527 18.2528C89.0384 19.0483 89.3082 19.983 89.3366 21.0568H85.4418C85.3622 20.3864 85.1349 19.8608 84.7599 19.4801C84.3906 19.0994 83.9077 18.9091 83.3111 18.9091C82.8281 18.9091 82.4048 19.0455 82.0412 19.3182C81.6776 19.5852 81.3935 19.983 81.1889 20.5114C80.9901 21.0341 80.8906 21.6818 80.8906 22.4545C80.8906 23.2273 80.9901 23.8807 81.1889 24.4148C81.3935 24.9432 81.6776 25.3437 82.0412 25.6165C82.4048 25.8835 82.8281 26.017 83.3111 26.017C83.6974 26.017 84.0384 25.9347 84.3338 25.7699C84.6349 25.6051 84.8821 25.3636 85.0753 25.0455C85.2685 24.7216 85.3906 24.3295 85.4418 23.8693H89.3366C89.2969 24.9489 89.027 25.892 88.527 26.6989C88.0327 27.5057 87.3366 28.1335 86.4389 28.5824C85.5469 29.0256 84.4872 29.2472 83.2599 29.2472ZM97.5888 29.2472C96.2195 29.2472 95.0376 28.9773 94.0433 28.4375C93.0547 27.892 92.2933 27.1165 91.7592 26.1108C91.2308 25.0994 90.9666 23.8977 90.9666 22.5057C90.9666 21.1534 91.2337 19.9716 91.7678 18.9602C92.3018 17.9432 93.0547 17.1534 94.0263 16.5909C94.9979 16.0227 96.1428 15.7386 97.4609 15.7386C98.3928 15.7386 99.245 15.8835 100.018 16.1733C100.79 16.4631 101.458 16.892 102.021 17.4602C102.583 18.0284 103.021 18.7301 103.333 19.5653C103.646 20.3949 103.802 21.3466 103.802 22.4205V23.4602H92.424V21.0398H99.924C99.9183 20.5966 99.8132 20.2017 99.6087 19.8551C99.4041 19.5085 99.1229 19.2386 98.7649 19.0455C98.4126 18.8466 98.0064 18.7472 97.5462 18.7472C97.0803 18.7472 96.6626 18.8523 96.2933 19.0625C95.924 19.267 95.6314 19.5483 95.4155 19.9062C95.1996 20.2585 95.0859 20.6591 95.0746 21.108V23.571C95.0746 24.1051 95.1797 24.5739 95.3899 24.9773C95.6001 25.375 95.8984 25.6847 96.2848 25.9062C96.6712 26.1278 97.1314 26.2386 97.6655 26.2386C98.0348 26.2386 98.37 26.1875 98.6712 26.0852C98.9723 25.983 99.2308 25.8324 99.4467 25.6335C99.6626 25.4347 99.8246 25.1903 99.9325 24.9006L103.759 25.0114C103.6 25.8693 103.251 26.6165 102.711 27.2528C102.177 27.8835 101.475 28.375 100.606 28.7273C99.7365 29.0739 98.7308 29.2472 97.5888 29.2472ZM110.098 11.5455V29H105.93V11.5455H110.098ZM133.751 17.8693H129.489C129.433 17.4318 129.316 17.0369 129.14 16.6847C128.964 16.3324 128.731 16.0312 128.441 15.7812C128.151 15.5312 127.808 15.3409 127.41 15.2102C127.018 15.0739 126.583 15.0057 126.106 15.0057C125.259 15.0057 124.529 15.2131 123.915 15.6278C123.308 16.0426 122.839 16.642 122.509 17.4261C122.185 18.2102 122.023 19.1591 122.023 20.2727C122.023 21.4318 122.188 22.4034 122.518 23.1875C122.853 23.9659 123.322 24.554 123.924 24.9517C124.532 25.3437 125.251 25.5398 126.08 25.5398C126.546 25.5398 126.969 25.4801 127.35 25.3608C127.737 25.2415 128.075 25.0682 128.364 24.8409C128.66 24.608 128.901 24.3267 129.089 23.9972C129.282 23.6619 129.415 23.2841 129.489 22.8636L133.751 22.8892C133.677 23.6619 133.452 24.4233 133.077 25.1733C132.708 25.9233 132.2 26.608 131.552 27.2273C130.904 27.8409 130.114 28.3295 129.183 28.6932C128.256 29.0568 127.194 29.2386 125.995 29.2386C124.415 29.2386 123.001 28.892 121.751 28.1989C120.506 27.5 119.523 26.483 118.802 25.1477C118.08 23.8125 117.719 22.1875 117.719 20.2727C117.719 18.3523 118.086 16.7244 118.819 15.3892C119.552 14.054 120.543 13.0398 121.793 12.3466C123.043 11.6534 124.444 11.3068 125.995 11.3068C127.052 11.3068 128.029 11.4545 128.927 11.75C129.825 12.0398 130.614 12.4659 131.296 13.0284C131.978 13.5852 132.532 14.2699 132.958 15.0824C133.384 15.8949 133.648 16.8239 133.751 17.8693ZM140.332 11.5455V29H136.165V11.5455H140.332ZM149.096 29.2472C147.721 29.2472 146.539 28.9659 145.55 28.4034C144.567 27.8352 143.809 27.0455 143.275 26.0341C142.746 25.017 142.482 23.8381 142.482 22.4972C142.482 21.1506 142.746 19.9716 143.275 18.9602C143.809 17.9432 144.567 17.1534 145.55 16.5909C146.539 16.0227 147.721 15.7386 149.096 15.7386C150.471 15.7386 151.65 16.0227 152.633 16.5909C153.621 17.1534 154.38 17.9432 154.908 18.9602C155.442 19.9716 155.71 21.1506 155.71 22.4972C155.71 23.8381 155.442 25.017 154.908 26.0341C154.38 27.0455 153.621 27.8352 152.633 28.4034C151.65 28.9659 150.471 29.2472 149.096 29.2472ZM149.121 26.1023C149.621 26.1023 150.045 25.9489 150.391 25.642C150.738 25.3352 151.002 24.9091 151.184 24.3636C151.371 23.8182 151.465 23.1875 151.465 22.4716C151.465 21.7443 151.371 21.108 151.184 20.5625C151.002 20.017 150.738 19.5909 150.391 19.2841C150.045 18.9773 149.621 18.8239 149.121 18.8239C148.604 18.8239 148.167 18.9773 147.809 19.2841C147.457 19.5909 147.187 20.017 146.999 20.5625C146.817 21.108 146.727 21.7443 146.727 22.4716C146.727 23.1875 146.817 23.8182 146.999 24.3636C147.187 24.9091 147.457 25.3352 147.809 25.642C148.167 25.9489 148.604 26.1023 149.121 26.1023ZM162.012 21.5341V29H157.844V15.9091H161.808V18.3125H161.952C162.242 17.5114 162.737 16.8835 163.435 16.429C164.134 15.9688 164.967 15.7386 165.933 15.7386C166.853 15.7386 167.651 15.946 168.327 16.3608C169.009 16.7699 169.538 17.3437 169.913 18.0824C170.293 18.8153 170.481 19.6733 170.475 20.6562V29H166.308V21.4744C166.313 20.7472 166.129 20.179 165.754 19.7699C165.384 19.3608 164.87 19.1562 164.211 19.1562C163.773 19.1562 163.387 19.2528 163.052 19.446C162.722 19.6335 162.467 19.9034 162.285 20.2557C162.109 20.608 162.018 21.0341 162.012 21.5341ZM179.175 29.2472C177.805 29.2472 176.624 28.9773 175.629 28.4375C174.641 27.892 173.879 27.1165 173.345 26.1108C172.817 25.0994 172.553 23.8977 172.553 22.5057C172.553 21.1534 172.82 19.9716 173.354 18.9602C173.888 17.9432 174.641 17.1534 175.612 16.5909C176.584 16.0227 177.729 15.7386 179.047 15.7386C179.979 15.7386 180.831 15.8835 181.604 16.1733C182.376 16.4631 183.044 16.892 183.607 17.4602C184.169 18.0284 184.607 18.7301 184.919 19.5653C185.232 20.3949 185.388 21.3466 185.388 22.4205V23.4602H174.01V21.0398H181.51C181.504 20.5966 181.399 20.2017 181.195 19.8551C180.99 19.5085 180.709 19.2386 180.351 19.0455C179.999 18.8466 179.592 18.7472 179.132 18.7472C178.666 18.7472 178.249 18.8523 177.879 19.0625C177.51 19.267 177.217 19.5483 177.001 19.9062C176.786 20.2585 176.672 20.6591 176.661 21.108V23.571C176.661 24.1051 176.766 24.5739 176.976 24.9773C177.186 25.375 177.484 25.6847 177.871 25.9062C178.257 26.1278 178.717 26.2386 179.251 26.2386C179.621 26.2386 179.956 26.1875 180.257 26.0852C180.558 25.983 180.817 25.8324 181.033 25.6335C181.249 25.4347 181.411 25.1903 181.518 24.9006L185.345 25.0114C185.186 25.8693 184.837 26.6165 184.297 27.2528C183.763 27.8835 183.061 28.375 182.192 28.7273C181.322 29.0739 180.317 29.2472 179.175 29.2472ZM203.232 11.5455H207.442V22.804C207.442 24.1051 207.133 25.2386 206.513 26.2045C205.894 27.1648 205.031 27.9091 203.923 28.4375C202.815 28.9602 201.528 29.2216 200.062 29.2216C198.579 29.2216 197.283 28.9602 196.175 28.4375C195.067 27.9091 194.207 27.1648 193.593 26.2045C192.979 25.2386 192.673 24.1051 192.673 22.804V11.5455H196.891V22.4375C196.891 23.0398 197.022 23.5767 197.283 24.0483C197.55 24.5199 197.923 24.8892 198.4 25.1562C198.877 25.4233 199.431 25.5568 200.062 25.5568C200.692 25.5568 201.244 25.4233 201.715 25.1562C202.192 24.8892 202.565 24.5199 202.832 24.0483C203.099 23.5767 203.232 23.0398 203.232 22.4375V11.5455ZM214.305 11.5455V29H210.087V11.5455H214.305Z" fill="#F8F8F8"/>
<path d="M1.94045 26.07C1.74147 26.4471 1.64329 26.8692 1.65542 27.2954C1.66755 27.7216 1.78958 28.1375 2.00968 28.5026C2.22978 28.8678 2.54048 29.1699 2.91168 29.3797C3.28288 29.5895 3.70197 29.6998 4.12835 29.7H28.8701C29.2991 29.7 29.7207 29.5885 30.0936 29.3764C30.4665 29.1643 30.7779 28.8589 30.9972 28.4902C31.2164 28.1215 31.3361 27.7021 31.3445 27.2732C31.3528 26.8443 31.2496 26.4206 31.0448 26.0436L18.5048 2.9436C17.561 1.20615 15.0645 1.221 14.1405 2.97L1.94045 26.07V26.07Z" fill="#F8F8F8"/>
</svg>
